<?xml version="1.0" encoding="UTF-8" standalone="no"?>
<!DOCTYPE svg PUBLIC "-//W3C//DTD SVG 1.1//EN" "http://www.w3.org/Graphics/SVG/1.1/DTD/svg11.dtd">
<svg width="100%" height="100%" viewBox="0 0 981 981" version="1.1" xmlns="http://www.w3.org/2000/svg" xmlns:xlink="http://www.w3.org/1999/xlink" xml:space="preserve" xmlns:serif="http://www.serif.com/" style="fill-rule:evenodd;clip-rule:evenodd;stroke-linejoin:round;stroke-miterlimit:2;">
    <g transform="matrix(1,0,0,1,-3736.36,-7729.92)">
        <g id="Page-3" serif:id="Page 3" transform="matrix(2.08715,0,0,4.16667,3736.36,7729.92)">
            <rect x="0" y="0" width="469.939" height="235.393" style="fill:none;"/>
            <clipPath id="_clip1">
                <rect x="0" y="0" width="469.939" height="235.393" style="clip-path: inset(0 0 0 0 round 50%);"/>
            </clipPath>
            <g clip-path="url(#_clip1)">
                <g id="Layer-2" serif:id="Layer 2" transform="matrix(1.99634,0,0,1,2.27374e-13,0)">
                    <g transform="matrix(-1.27021,-1.27021,-1.27021,1.27021,412.362,117.645)">
                        <rect x="0.453" y="0.017" width="235.001" height="235.177" style="fill:url(#_Linear2);"/>
                    </g>
                    <g transform="matrix(1,0,0,1,192.95,92.6892)">
                        <path d="M0,49.027L-9.85,60.888C-11.393,62.781 -15.059,63.53 -17.234,62.412L-46.789,47.215C-46.863,47.169 -46.926,47.135 -46.988,47.108C-46.926,47.054 -46.863,47.026 -46.789,46.998L-21.699,33.533C-19.088,32.139 -13.822,32.139 -11.197,33.513L-8.463,34.973C-5.027,36.797 -0.494,40.431 1.258,42.769C2.002,43.76 1.883,46.752 0,49.027M-41.42,98.994C-42.951,100.858 -46.486,101.521 -48.602,100.374L-49.885,99.672L-54.7,96.999C-55.06,96.818 -55.286,96.629 -55.429,96.505C-55.286,96.352 -55.063,96.178 -54.738,95.964L-22.254,75.923L-41.42,98.994ZM-98.421,103.816C-101.669,103.816 -106.542,101.511 -108.628,98.994L-117.489,88.316C-118.054,87.611 -118.3,86.86 -118.163,86.189C-118.036,85.515 -117.527,84.907 -116.731,84.491L-110.839,81.325C-109.558,80.645 -107.694,80.237 -105.704,80.237C-103.692,80.237 -101.711,80.678 -100.417,81.381L-59.696,103.816L-98.421,103.816ZM-141.641,59.164L-114.792,73.576C-114.659,73.652 -114.546,73.715 -114.456,73.761C-114.546,73.828 -114.659,73.889 -114.792,73.951L-120.68,77.113C-121.401,77.493 -122.288,77.702 -123.245,77.702C-125.085,77.702 -126.935,76.923 -127.954,75.701L-141.641,59.164ZM-150.223,41.329L-132.495,17.697C-131.083,15.799 -127.664,14.999 -125.55,16.104L-110.755,23.71C-110.667,23.756 -110.594,23.794 -110.534,23.827C-110.594,23.87 -110.667,23.922 -110.755,23.949L-144.831,42.333C-146.799,43.389 -149.288,44.063 -151.194,44.063C-151.347,44.063 -151.47,44.063 -151.593,44.039C-151.446,43.414 -151.058,42.427 -150.223,41.329M-122.671,4.578L-109.142,-13.449C-108.192,-14.699 -106.431,-15.52 -104.637,-15.52C-103.778,-15.52 -102.963,-15.334 -102.285,-14.97L-90.081,-8.469L-90.077,-8.469L-70.463,1.97C-70.438,1.97 -70.425,1.984 -70.405,2.004C-70.299,2.047 -70.207,2.117 -70.141,2.165C-70.219,2.212 -70.321,2.278 -70.435,2.331L-96.287,16.189C-97.626,16.89 -99.658,17.318 -101.724,17.318C-103.751,17.318 -105.637,16.939 -106.931,16.284L-121.722,8.662C-122.554,8.248 -123.099,7.603 -123.271,6.868C-123.435,6.132 -123.222,5.332 -122.671,4.578M-99.203,-26.353C-90.093,-37.865 -78.835,-51.006 -74.774,-54.34C-72.331,-52.614 -67.124,-47.299 -62.656,-41.852C-62.081,-41.15 -61.843,-40.392 -61.985,-39.708C-62.113,-39.036 -62.633,-38.448 -63.423,-38.002L-91.966,-22.829C-94.554,-22.063 -97.98,-22.148 -99.497,-22.944C-99.843,-23.133 -100.023,-23.361 -100.1,-23.733C-100.223,-24.286 -100.048,-25.286 -99.203,-26.353M-42.951,-16.154C-42.391,-15.401 -42.174,-14.573 -42.338,-13.812C-42.512,-13.04 -43.049,-12.382 -43.879,-11.926L-56.017,-5.426C-58.614,-4.019 -63.873,-4.019 -66.495,-5.397L-66.505,-5.411L-86.161,-15.869C-86.274,-15.918 -86.382,-15.974 -86.469,-16.04C-86.382,-16.089 -86.265,-16.154 -86.161,-16.221L-59.469,-30.596C-57.405,-31.715 -54.059,-30.966 -52.65,-29.087L-42.951,-16.154ZM-13.855,22.618L-21.686,18.445C-21.709,18.445 -21.709,18.445 -21.715,18.426L-52.033,2.302C-52.041,2.293 -52.055,2.293 -52.076,2.293C-52.186,2.221 -52.279,2.184 -52.355,2.117C-52.279,2.071 -52.174,2.004 -52.055,1.937L-39.93,-4.568C-37.861,-5.661 -34.51,-4.913 -33.102,-3.06L-13.855,22.618ZM-56.179,40.763C-58.183,40.763 -60.072,40.384 -61.372,39.707L-92.338,23.785C-92.415,23.748 -92.48,23.71 -92.55,23.665C-92.48,23.646 -92.415,23.594 -92.338,23.551L-66.495,9.703C-63.882,8.311 -58.618,8.296 -55.993,9.67L-55.974,9.67L-25.578,25.862C-25.482,25.889 -25.416,25.938 -25.336,25.984C-25.436,26.051 -25.539,26.099 -25.646,26.166L-50.744,39.626C-52.076,40.336 -54.109,40.763 -56.179,40.763M-25.762,67.422C-25.516,67.565 -25.309,67.693 -25.166,67.792C-25.303,67.917 -25.482,68.067 -25.738,68.223L-59.122,88.847C-61.54,90.35 -66.575,90.465 -69.071,89.08L-96.387,74.051C-96.544,73.965 -96.681,73.889 -96.781,73.813C-96.669,73.743 -96.544,73.671 -96.387,73.576L-61.247,54.741C-58.618,53.332 -53.262,53.298 -50.615,54.65L-39.635,60.298L-25.762,67.422ZM-140.894,50.06C-141.011,50.022 -141.13,49.957 -141.214,49.889C-141.112,49.828 -141.001,49.756 -140.873,49.68L-106.786,31.318C-104.177,29.91 -98.808,29.863 -96.175,31.228L-65.2,47.155C-65.122,47.183 -65.062,47.215 -64.991,47.263C-65.062,47.282 -65.122,47.325 -65.2,47.377L-100.329,66.204C-102.951,67.622 -108.219,67.622 -110.839,66.204L-140.894,50.06ZM7.951,37.739C6.541,35.865 4.133,33.623 1.514,31.579C1.514,29.172 -0.104,27.012 -0.816,26.051L-26.418,-8.072C-28.275,-10.533 -30.996,-12.267 -34.064,-13.015C-33.719,-15.851 -34.463,-18.782 -36.262,-21.18L-45.971,-34.118C-47.838,-36.622 -50.6,-38.343 -53.703,-39.102C-53.438,-41.919 -54.263,-44.8 -56.199,-47.152C-69.306,-63.129 -73.616,-63.129 -75.019,-63.129C-77.039,-63.129 -80.774,-63.129 -105.761,-31.54C-107.7,-29.079 -108.595,-26.159 -108.4,-23.375C-111.371,-22.576 -114.017,-20.881 -115.835,-18.458L-129.353,-0.433C-131.151,1.97 -131.884,4.868 -131.542,7.688C-134.614,8.466 -137.332,10.196 -139.19,12.681L-156.917,36.31C-159.439,39.676 -160.491,43.41 -159.809,46.514C-159.652,47.206 -159.396,47.823 -159.089,48.402C-159.255,50.961 -157.384,53.275 -156.481,54.355L-134.382,81.03C-132.425,83.386 -129.599,85.032 -126.47,85.717C-126.688,88.506 -125.835,91.338 -123.909,93.649L-115.058,104.328C-111.354,108.798 -104.205,112.156 -98.421,112.156L-51.641,112.156C-47.352,112.156 -45.367,110.727 -44.455,109.163C-40.727,108.779 -37.27,107.082 -34.977,104.346L-13.805,78.84C-12.225,76.927 -9.85,73.557 -9.521,70.352C-7.133,69.499 -4.969,68.124 -3.404,66.237L6.424,54.355C10.549,49.387 11.209,42.096 7.951,37.739" style="fill:white;fill-rule:nonzero;"/>
                    </g>
                </g>
            </g>
        </g>
    </g>
    <defs>
        <linearGradient id="_Linear2" x1="0" y1="0" x2="1" y2="0" gradientUnits="userSpaceOnUse" gradientTransform="matrix(264.356,0,0,-264.554,-14.9025,116.946)"><stop offset="0" style="stop-color:rgb(39,205,131);stop-opacity:1"/><stop offset="0.33" style="stop-color:rgb(43,202,131);stop-opacity:1"/><stop offset="0.49" style="stop-color:rgb(65,184,131);stop-opacity:1"/><stop offset="0.49" style="stop-color:rgb(52,73,94);stop-opacity:1"/><stop offset="0.83" style="stop-color:rgb(62,81,99);stop-opacity:1"/><stop offset="1" style="stop-color:rgb(129,130,132);stop-opacity:1"/></linearGradient>
    </defs>
</svg>
